<svg width="512" height="512" viewBox="0 0 512 512" fill="none" xmlns="http://www.w3.org/2000/svg">
  <g clip-path="url(#clip0_1184_246)">
    <path
      d="M288.5 1.09961C286.3 1.59961 279.3 2.89961 273 4.09961C266.7 5.19961 256.1 7.89961 249.5 10.0996C242.9 12.2996 231.7 16.9996 224.5 20.4996C217.3 23.9996 207.4 29.4996 202.5 32.7996C197.6 36.0996 189.6 41.9996 184.7 45.8996C179.9 49.7996 175.7 52.9996 175.3 52.9996C174.8 53.0996 173.8 52.2996 173 51.3996C172.2 50.4996 169 48.4996 166 46.9996C163 45.4996 158.1 43.6996 155.2 43.0996C152.4 42.4996 148.5 41.9996 146.8 41.9996C144.2 41.8996 142.3 40.7996 137.5 36.0996C133.6 32.2996 128.9 28.8996 124 26.5996C119.9 24.5996 113.3 22.2996 109.5 21.4996C105.7 20.6996 100.5 19.9996 98 19.9996C95.5 19.9996 90.3 20.6996 86.5 21.4996C82.7 22.2996 76.1 24.5996 72 26.6996C66.7 29.2996 62.4 32.4996 57.4 37.3996C52.3 42.4996 49.3 46.5996 46.7 51.9996C44.7 56.0996 42.8 61.0996 42.4 62.9996C42 64.8996 41.2 67.0996 40.6 67.7996C40 68.4996 38.6 69.0996 37.5 69.0996C36.4 69.0996 33.7 69.8996 31.5 70.7996C29.3 71.7996 25.5 74.3996 23.1 76.5996C20.7 78.6996 17.6 82.1996 16.4 84.2996C15.1 86.2996 13.3 90.7996 12.4 94.2996C11.4 98.2996 11 102.3 11.4 105.5C11.8 108.3 13.3 113.2 14.9 116.5C16.7 120.5 19.5 124.1 23.1 127.3C27.1 130.9 30.2 132.7 35 134.1C41 135.9 44.7 136 81.8 136C103.9 136 122 136.2 122 136.5C122 136.8 120.9 140.9 119.5 145.8C118.1 150.6 116.1 159.9 115 166.5C113.8 173.1 112.6 185 112.3 193C112 201.6 112.2 212 112.9 218.5C113.6 224.6 115 234.2 116.1 240C117.3 245.8 120 255.9 122.2 262.5C124.4 269.1 128.5 279.4 131.4 285.5C134.3 291.6 138.5 299.5 140.8 303.3C144.9 309.8 144.9 310.1 143.3 312.1C142.3 313.3 111.8 342.7 75.5 377.5C28.2 422.9 8.60004 442.3 6.30004 446.2C4.50004 449.1 2.30004 454.4 1.40004 458C0.300038 462.5 -0.0999622 466.7 0.300038 471.5C0.600038 475.4 1.80004 481 2.90004 484C4.00004 487 6.70004 491.7 8.80004 494.5C10.9 497.2 14.8 501.2 17.5 503.2C20.3 505.3 25.4 508.1 29 509.5C34 511.4 37.4 512 43.5 512C49.2 512 53.1 511.4 57 509.9C60 508.8 64.5 506.6 67 505C69.5 503.4 99.6 472.8 134.1 436.8C168.6 400.9 197.8 370.5 199.1 369.2L201.5 366.9C212.4 373.4 220.4 377.7 226.5 380.6C232.6 383.5 242.9 387.6 249.5 389.8C256.1 392 266.4 394.7 272.5 395.9C278.6 397.1 287.6 398.5 292.5 399C297.4 399.5 306 400 311.5 400C317 400 326.2 399.5 332 398.9C337.8 398.4 347.9 396.7 354.5 395.3C361.1 393.9 371 391.2 376.5 389.3C382 387.4 389.4 384.4 393 382.6L399.5 379.5C486.2 378.5 487.6 378.4 492.5 376.3C495.3 375 499.7 371.7 502.6 368.8C505.5 365.7 508.5 361.4 509.6 358.5C510.8 355.3 511.5 351 511.5 346.5C511.5 342 510.8 337.7 509.6 334.5C508.5 331.6 505.5 327.3 502.6 324.2C499.6 321.2 495.5 318.1 492.8 317C488.7 315.3 487.7 314.3 485.6 309.7L483.2 304.5C494.4 282 499.5 269.9 501.7 263C504 256.1 506.8 245.6 507.9 239.5C509.1 233.4 510.4 224.4 511 219.5C511.5 214.6 512 206.2 512 201C512 195.8 511.5 186.8 511 181C510.4 175.2 508.9 165.3 507.6 159C506.3 152.7 503.6 142.6 501.6 136.5C499.6 130.4 495.1 119.6 491.6 112.5C488.1 105.3 482.2 94.9996 478.5 89.4996C474.8 83.9996 469 76.0996 465.5 71.9996C462.1 67.8996 455.2 60.6996 450.4 55.9996C445.5 51.2996 437.7 44.4996 433 40.9996C428.3 37.4996 420.9 32.2996 416.5 29.5996C412.1 26.8996 403.6 22.2996 397.5 19.3996C391.4 16.3996 381.1 12.2996 374.5 10.1996C367.9 7.99961 357.3 5.29961 351 4.09961C344.7 2.89961 337.4 1.49961 334.8 0.899609C332.1 0.399609 321.6 0.0996094 311.3 0.0996094C300.9 0.199609 290.7 0.599609 288.5 1.09961Z"
      fill="black"/>
    <path
      d="M292 21.0996C287.9 21.5996 280 22.8996 274.5 24.0996C269 25.2996 260.4 27.4996 255.5 29.0996C250.6 30.7996 241.1 34.6996 234.5 37.7996C227.9 40.9996 218 46.5996 212.5 50.2996C207 53.8996 198.4 60.3996 193.5 64.6996C188.6 68.9996 180.9 76.6996 176.5 81.7996C172.1 86.8996 165.9 94.9996 162.7 99.7996C159.4 104.6 153.9 114.3 150.4 121.5C146.9 128.7 142.7 138.6 141.1 143.5C139.5 148.4 137.3 156.8 136.2 162C135.1 167.2 133.7 175.9 133.1 181.3C132.5 186.6 132 195.1 132 200C132 204.9 132.5 213.4 133.1 218.8C133.7 224.1 135.1 232.8 136.2 238C137.3 243.2 139.6 251.6 141.2 256.5C142.8 261.4 146.4 270.2 149.1 276C151.9 281.8 156.2 289.9 158.7 294C161.2 298.1 166 305.1 169.3 309.5C172.7 313.9 179.7 321.8 184.9 327.1C190.2 332.3 198.1 339.3 202.5 342.7C206.9 346 213.9 350.8 218 353.3C222.1 355.8 230.2 360.1 236 362.9C241.8 365.6 250.6 369.2 255.5 370.8C260.4 372.4 268.8 374.7 274 375.8C279.2 377 288.2 378.4 294 379C299.8 379.5 307.9 380 312 380C316.1 380 323 379.7 327.3 379.3C331.5 378.8 335 378.2 335 377.7C335 377.3 333.5 376.4 331.8 375.7C330 375 326.5 372.6 324.1 370.4C321.8 368.3 318.9 365 317.9 363.2C316.1 360.1 315.8 360 309.5 360C305.9 360 297.9 359.3 291.7 358.5C285.6 357.7 276.2 355.9 271 354.5C265.8 353.1 256.8 350 251 347.7C245.2 345.3 236.4 341 231.5 338.1C226.6 335.1 219.1 330.1 215 327C210.9 323.9 203.7 317.5 199.1 312.9C194.5 308.3 188.1 301.1 185 297C181.9 292.9 177 285.7 174.2 281C171.4 276.3 167.5 268.7 165.5 264C163.5 259.3 160.6 251.2 159 246C157.4 240.8 155.3 232.4 154.3 227.5C153.1 221 152.6 213.4 152.6 200.5C152.6 187.4 153.1 179.8 154.4 172.5C155.4 167 157.9 157.3 160 151C162 144.7 165.3 136.1 167.2 132C169.1 127.9 171.7 123.6 173 122.5C174.6 121.1 176.6 120.5 180.2 120.5C184.1 120.5 185.4 120.1 186.2 118.5C186.8 117.4 189.9 113.1 193.1 109C198.4 101.9 198.7 101.4 197.4 98.9996C196.7 97.5996 196.1 95.4996 196 94.1996C196 92.9996 196.6 90.7996 197.4 89.1996C198.1 87.6996 199.9 85.8996 201.4 85.1996C202.8 84.5996 205 83.9996 206.3 83.9996C207.5 84.0996 209.6 84.6996 211 85.3996C213.4 86.6996 213.9 86.3996 221 81.0996C225.1 77.8996 229.4 74.7996 230.5 74.1996C232.1 73.3996 232.5 72.0996 232.5 68.1996C232.5 64.5996 233.1 62.5996 234.5 60.9996C235.6 59.6996 239.9 57.0996 244 55.1996C248.1 53.2996 256.7 49.9996 263 47.9996C269.3 45.8996 279 43.3996 284.5 42.3996C291.8 41.0996 299.4 40.5996 312.5 40.5996C326.9 40.5996 332.7 40.9996 341.5 42.7996C347.6 43.9996 357.2 46.5996 363 48.4996C368.8 50.4996 377.6 54.0996 382.5 56.4996C387.4 58.8996 395.4 63.4996 400.2 66.6996C404.9 69.8996 412.5 75.6996 417 79.4996C421.5 83.2996 428.4 90.1996 432.3 94.7996C436.3 99.3996 442.1 107.1 445.3 111.8C448.5 116.6 453 124.5 455.4 129.5C457.9 134.4 461.5 143.2 463.5 149C465.4 154.8 468.1 164.4 469.2 170.5C471 179.4 471.4 185 471.4 200C471.4 215.3 471 220.5 469.1 230C467.9 236.3 465.5 245.6 463.8 250.5C462.1 255.4 459.1 263.1 457.1 267.5C455 271.9 452.1 277.5 450.6 280C448.4 283.5 448.1 284.7 449.2 285.2C449.9 285.6 452 286 453.8 286C455.5 286 459.4 286.9 462.3 288C465.1 289.1 467.8 289.6 468.2 289.2C468.5 288.8 470.8 284.4 473.3 279.5C475.8 274.6 479.4 266.2 481.3 261C483.2 255.8 486 246.3 487.4 240C488.7 233.7 490.4 224.1 490.9 218.7C491.5 213.4 492 204.9 492 200C492 195.1 491.5 186.6 490.9 181.2C490.3 175.9 488.9 167.2 487.8 162C486.7 156.8 484.5 148.4 482.9 143.5C481.3 138.6 477.1 128.7 473.6 121.5C470.1 114.3 464.6 104.6 461.3 99.7996C458.1 94.9996 451.9 86.8996 447.5 81.7996C443.1 76.6996 435.4 68.9996 430.5 64.6996C425.6 60.3996 417 53.8996 411.5 50.2996C406 46.5996 396.1 40.9996 389.5 37.7996C382.9 34.6996 373.4 30.7996 368.5 29.0996C363.6 27.4996 355.2 25.2996 350 24.1996C344.8 23.0996 336.1 21.6996 330.8 21.0996C325.4 20.4996 316.2 20.0996 310.3 20.0996C304.3 20.1996 296.1 20.5996 292 21.0996ZM71.5 409.1C46 433.5 24.4 455 23 457.3C21 460.7 20.5 462.8 20.5 468.6C20.5 474.7 20.9 476.3 23.5 480.5C25.4 483.6 28.4 486.6 31.4 488.4C35.7 491.1 37.3 491.5 43.4 491.5C49.2 491.5 51.3 491 54.7 489C57 487.6 76.5 468 98.1 445.5C119.6 422.9 139.4 402.2 142.1 399.5L147 394.5L117.5 365L71.5 409.1Z"
      fill="#FF8700"/>
    <path
      d="M298 60.5995C296.1 60.8995 290.7 61.7995 286 62.5995C281.3 63.4995 273.9 65.2995 269.5 66.6995C265.1 68.0995 257.7 70.9995 253 73.0995C248.3 75.2995 243.5 76.9995 242.2 76.9995C241 76.9995 238.7 76.2995 237 75.4995C235.3 74.6995 234 73.4995 234 72.9995C234 72.4995 232.8 72.7995 231.3 73.6995C229.7 74.6995 225.2 77.8995 221.2 80.9995C215.1 85.4995 214 86.8995 214.5 88.4995C214.9 89.5995 215.4 91.9995 215.6 93.6995C215.9 96.3995 215.4 97.6995 212.6 100.499C210.3 102.899 208.3 103.999 206.4 103.999C204.8 103.999 202.5 103.299 201.3 102.499C199.1 100.999 198.8 101.199 193.2 108.699C190 112.999 186.8 117.599 186 118.899C184.6 121.099 184.7 121.499 186.8 123.899C188.1 125.399 189.1 127.799 189.1 129.499C189.1 131.199 187.3 136.299 185.1 140.999C183 145.699 180.1 153.099 178.7 157.499C177.3 161.899 175.4 169.599 174.4 174.499C173.1 180.999 172.6 188.099 172.6 199.999C172.6 211.899 173.1 218.999 174.4 225.499C175.4 230.399 177.3 238.099 178.7 242.499C180.1 246.899 183 254.299 185.2 258.999C187.4 263.699 192.1 271.999 195.7 277.499C200 284.099 206 291.3 213.4 298.6C220.7 306 227.9 311.999 234.5 316.299C240 319.899 248.3 324.599 253 326.799C257.7 328.999 265.1 331.899 269.5 333.299C273.9 334.699 281.3 336.5 286 337.4C290.7 338.3 298.7 339.399 303.8 339.799C310.9 340.299 313 340.2 313 339.2C313 338.6 313.9 335.6 315 332.7C316 329.9 318.6 325.5 320.7 323.1C322.8 320.7 326.5 317.6 329 316.1C331.5 314.7 335.5 313.099 337.9 312.499C342.1 311.499 342.3 311.3 343.6 306.2C344.4 303.4 346.3 298.4 347.9 295.2C349.5 292.1 352.8 286.999 355.2 283.999C357.6 280.999 362.7 276.399 366.6 273.799C370.4 271.299 377.1 267.899 381.5 266.399C387.9 264.199 391.3 263.7 399 263.7C405.4 263.6 410.5 264.199 414.5 265.399C417.8 266.399 423.1 268.5 426.2 270.1L432 272.999C438.8 259.399 442.2 251.399 443.9 246.499C445.7 241.599 448.1 232.999 449.2 227.499C451 219.399 451.4 214.199 451.4 199.999C451.4 185.999 450.9 180.499 449.2 172.499C448.1 166.999 445.7 158.399 444 153.499C442.2 148.599 438.8 140.699 436.3 135.999C433.9 131.299 429.7 124.299 427.2 120.499C424.6 116.699 417.1 108.099 410.5 101.499C403.9 94.8995 395.4 87.3995 391.5 84.7995C387.6 82.2995 380.7 78.0995 376 75.6995C371.3 73.1995 363.4 69.7995 358.5 67.9995C353.6 66.2995 345.2 63.9995 340 62.8995C334 61.6995 325.2 60.7995 316 60.5995C308 60.2995 299.9 60.3995 298 60.5995Z"
      fill="white"/>
    <path
      d="M201.3 85.4C200.2 86.1 198.5 87.8 197.6 89.1C196.8 90.4 196.1 92.5 196 93.7C196 95 196.5 97 197 98.2C197.6 99.5 199.4 101.3 201 102.2C202.7 103.2 205.2 104 206.6 104C208.3 104 210.4 102.7 212.6 100.5C214.6 98.4 216 96 216 94.5C216 93.1 215.4 90.8 214.7 89.4C214.1 87.9 212.3 86.1 210.7 85.4C209.2 84.6 207 84 205.7 84C204.5 84.1 202.5 84.7 201.3 85.4Z"
      fill="black"/>
    <path
      d="M144.7 339.099L131.9 351.499L160.5 380.099L185.2 354.499C173.9 344.399 167.7 338.199 164.1 334.099L157.5 326.799L144.7 339.099Z"
      fill="#FFC144"/>
    <path
      d="M89.8 41.0006C87.7 41.6006 83.8 43.1006 81 44.5006C78.3 45.9006 74 49.0006 71.5 51.5006C69 54.0006 65.9 58.1006 64.6 60.8006C63.3 63.4006 61.7 67.9006 61.1 70.7006C60.5 73.6006 60 77.3006 60 79.0006C60 80.7006 59 83.1006 57.8 84.6006C55.8 86.8006 54.3 87.3006 47.5 88.0006C42.2 88.6006 38.6 89.5006 37 90.8006C35.6 91.8006 33.7 94.2006 32.7 96.1006C31.4 98.5006 31.1 100.601 31.5 103.501C31.9 105.701 33.1 108.801 34.3 110.401C35.5 112.001 38 114.001 39.8 114.701C42.3 115.701 52.9 116.001 86.8 116.001H130.5C137.5 102.401 142.3 94.2006 145.8 89.0006C149.3 83.8006 154.3 77.1006 156.8 74.1006C160.6 69.8006 161.3 68.5006 160.4 67.1006C159.8 66.2006 157.1 64.7006 154.4 63.8006C150.6 62.5006 147.9 62.3006 142.3 62.8006L135.2 63.5006C130.8 58.2006 127 54.1006 124 51.0006C120 46.9006 116.9 44.8006 112.5 43.1006C109.2 41.9006 103.6 40.7006 100 40.5006C96.4 40.2006 91.8 40.5006 89.7 41.0006H89.8ZM392.1 284.101C389.6 284.601 385.3 286.101 382.6 287.401C379.8 288.801 375.2 292.401 372.3 295.401C369.5 298.501 366.2 302.901 365.1 305.201C364.1 307.601 362.7 312.801 362.1 316.701C361.6 320.701 360.7 324.901 360.1 326.001C359.5 327.101 358.1 328.701 356.8 329.501C355.6 330.401 352.4 331.001 349.3 331.001C346.1 331.001 342.6 331.801 340.1 333.001C337.8 334.201 335.4 336.301 334.5 338.201C333.6 340.001 332.8 343.101 332.8 345.001C332.8 346.901 333.6 350.101 334.7 352.001C335.8 353.901 338.2 356.301 340.1 357.201C343.3 358.901 348.9 359.001 413.1 359.001C480.8 359.001 482.7 358.901 485.8 357.001C487.6 355.901 489.8 353.601 490.6 352.001C491.4 350.401 492.1 347.901 492.1 346.501C492.1 345.101 491.4 342.601 490.6 341.001C489.8 339.401 487.6 337.101 485.8 336.001C484.1 334.901 481.1 334.001 479.3 334.001C477.2 334.001 475.2 333.101 473.2 331.201C471.2 329.301 470 326.801 469.1 322.501C468.1 317.501 467.1 315.801 463.2 311.901C459.9 308.701 457.3 307.001 454.1 306.301C451.6 305.801 447.6 305.601 445.1 306.001C442.6 306.301 439.1 306.301 437.3 305.801C435.1 305.301 433.2 303.701 431.2 300.701C429.7 298.401 426.2 294.601 423.5 292.201C420.8 289.801 416.3 287.101 413.6 286.001C410.8 285.001 405.9 283.901 402.6 283.701C399.3 283.401 394.6 283.501 392.1 284.101Z"
      fill="#0296E5"/>
    <path
      d="M257.3 191.4C256.2 192.1 254.5 193.8 253.6 195.1C252.8 196.4 252.1 198.5 252 199.7C252 201 252.6 203.2 253.4 204.7C254.1 206.3 255.9 208.1 257.4 208.7C258.8 209.4 260.9 210 262 210C263.1 210 265.2 209.4 266.6 208.7C268.1 208.1 269.9 206.3 270.6 204.7C271.4 203.2 272 201.1 272 200C272 198.9 271.4 196.8 270.7 195.4C270.1 193.9 268.3 192.1 266.7 191.4C265.2 190.6 263 190 261.7 190C260.5 190.1 258.5 190.7 257.3 191.4ZM307.3 191.4C306.2 192.1 304.5 193.8 303.6 195.1C302.8 196.4 302.1 198.5 302 199.7C302 201 302.6 203.2 303.4 204.7C304.1 206.3 305.9 208.1 307.4 208.7C308.8 209.4 310.9 210 312 210C313.1 210 315.2 209.4 316.6 208.7C318.1 208.1 319.9 206.3 320.6 204.7C321.4 203.2 322 201.1 322 200C322 198.9 321.4 196.8 320.7 195.4C320.1 193.9 318.3 192.1 316.7 191.4C315.2 190.6 313 190 311.7 190C310.5 190.1 308.5 190.7 307.3 191.4ZM357.3 191.4C356.2 192.1 354.5 193.8 353.6 195.1C352.8 196.4 352.1 198.5 352 199.7C352 201 352.6 203.2 353.4 204.7C354.1 206.3 355.9 208.1 357.4 208.7C358.8 209.4 360.9 210 362 210C363.1 210 365.2 209.4 366.6 208.7C368.1 208.1 369.9 206.3 370.6 204.7C371.4 203.2 372 201.1 372 200C372 198.9 371.4 196.8 370.7 195.4C370.1 193.9 368.3 192.1 366.7 191.4C365.2 190.6 363 190 361.7 190C360.5 190.1 358.5 190.7 357.3 191.4Z"
      fill="black"/>
  </g>
  <defs>
    <clipPath id="clip0_1184_246">
      <rect width="512" height="512" fill="white"/>
    </clipPath>
  </defs>
</svg>
